<svg xmlns="http://www.w3.org/2000/svg" viewBox="0 0 1200 720">
  <defs>
    <linearGradient id="bg" x1="0" y1="0" x2="1" y2="1">
      <stop offset="0%" stop-color="#1c2541"/>
      <stop offset="55%" stop-color="#38466f"/>
      <stop offset="100%" stop-color="#f26c63"/>
    </linearGradient>
    <linearGradient id="glow" x1="0" y1="0" x2="1" y2="0">
      <stop offset="0%" stop-color="#ffbf47" stop-opacity=".9"/>
      <stop offset="100%" stop-color="#fff5cf" stop-opacity=".2"/>
    </linearGradient>
  </defs>
  <rect width="1200" height="720" rx="48" fill="url(#bg)"/>
  <circle cx="920" cy="150" r="120" fill="#ffbf47" opacity=".22"/>
  <circle cx="250" cy="160" r="90" fill="#ffffff" opacity=".08"/>
  <rect x="120" y="470" width="560" height="150" rx="28" fill="#fffaf3" opacity=".12"/>
  <rect x="160" y="430" width="470" height="32" rx="16" fill="url(#glow)" opacity=".8"/>
  <rect x="200" y="400" width="250" height="18" rx="9" fill="#ffffff" opacity=".35"/>
  <rect x="720" y="260" width="220" height="260" rx="26" fill="#fffaf3" opacity=".1"/>
  <rect x="760" y="210" width="150" height="18" rx="9" fill="#ffffff" opacity=".22"/>
  <path d="M310 415c30-84 96-130 182-130 103 0 175 66 193 188H310z" fill="#fffaf3" opacity=".92"/>
  <circle cx="498" cy="235" r="54" fill="#f7c7b7"/>
  <rect x="430" y="286" width="132" height="124" rx="32" fill="#c8f2df"/>
  <rect x="476" y="312" width="118" height="82" rx="18" fill="#ffbf47"/>
  <path d="M476 312h58c12 18 20 38 24 60h-82z" fill="#ffffff" opacity=".18"/>
  <rect x="820" y="330" width="168" height="110" rx="22" fill="#ffbf47"/>
  <rect x="842" y="354" width="124" height="20" rx="10" fill="#1c2541" opacity=".2"/>
  <rect x="842" y="386" width="104" height="16" rx="8" fill="#1c2541" opacity=".16"/>
  <text x="120" y="122" fill="#fffaf3" font-family="Arial, sans-serif" font-size="42" font-weight="700">Focused Study Environment</text>
  <text x="120" y="176" fill="#fffaf3" font-family="Arial, sans-serif" font-size="24" opacity=".86">Calm seating, warm lighting, and long-hour preparation energy</text>
</svg>
