<svg xmlns="http://www.w3.org/2000/svg" viewBox="0 0 680 680" role="img" aria-labelledby="title desc">
  <title id="title">Manokamna Library Logo</title>
  <desc id="desc">Diamond shaped Manokamna Library logo with open book and Hindi motto.</desc>
  <defs>
    <filter id="shadow" x="-20%" y="-20%" width="140%" height="140%">
      <feDropShadow dx="0" dy="6" stdDeviation="10" flood-color="#000000" flood-opacity=".18"/>
    </filter>
  </defs>

  <g filter="url(#shadow)">
    <rect x="92" y="92" width="496" height="496" rx="58" fill="#ffffff" stroke="#1b1b1b" stroke-width="10" transform="rotate(45 340 340)"/>
    <rect x="108" y="108" width="464" height="464" rx="48" fill="none" stroke="#d9271c" stroke-width="4" transform="rotate(45 340 340)"/>
  </g>

  <g fill="none" stroke="#151515" stroke-width="8" stroke-linecap="square" stroke-linejoin="miter">
    <path d="M165 436V250l74-42 78 43" />
    <path d="M195 466V267l88-51 95 56" />
    <path d="M225 493V285l104-60 112 67" />
    <path d="M515 436V250l-74-42-78 43" />
    <path d="M485 466V267l-88-51-95 56" />
    <path d="M455 493V285l-104-60-112 67" />
    <path d="M253 493c28-7 55-10 87-10s59 3 87 10" />
    <path d="M262 509c24-8 50-12 78-12s54 4 78 12" />
  </g>

  <g fill="none" stroke="#d9271c" stroke-width="7" stroke-linecap="round" stroke-linejoin="round">
    <path d="M184 255c38-23 94-28 156-28s118 5 156 28" opacity=".95"/>
    <path d="M210 257l26 156h208l26-156" />
    <path d="M237 248c16 16 30 24 50 24" />
    <path d="M443 248c-16 16-30 24-50 24" />
    <path d="M249 412c24 13 58 20 91 20s67-7 91-20" opacity=".85"/>
  </g>

  <text x="340" y="320" text-anchor="middle" font-family="Arial, sans-serif" font-size="38" font-weight="700" fill="#121212">Manokamna</text>
  <text x="340" y="372" text-anchor="middle" font-family="Arial, sans-serif" font-size="62" font-weight="800" fill="#d9271c">LIBRARY</text>
  <text x="340" y="488" text-anchor="middle" font-family="'Noto Sans Devanagari', Arial, sans-serif" font-size="34" font-weight="700" fill="#111111">ॐ हं हनुमते नमः</text>
</svg>
